# xmcd
# Track frame offsets:
# 150
# 12565
# 25830
# 36535
# 50525
# 63172
# 79617
# 91730
# 104325
# 117330
#
# Disc length: 1791 seconds
# Revision: 2
# Processed by: cddbd v1.4PL0 Copyright (c) Steve Scherf et al.
# Submitted via: VisiTrax 2.9.5.181 - For more info visit www.synapsa.com
#
DISCID=7a06fd0a
DTITLE=Hank Williams Jr. - Best Of Hank Williams, Jr.
DYEAR=1991
DGENRE=
TTITLE0=Hank
TTITLE1=Raining In My Heart
TTITLE2=Ain't That A Shame
TTITLE3=Rainy Night In Georgia
TTITLE4=Stoned At The Jukebox
TTITLE5=Living Proof
TTITLE6=Cajun Baby
TTITLE7=Wolverton Mountain
TTITLE8=That Old Wheel
TTITLE9=All For The Love Of Sunshine
EXTD=
EXTT0=
EXTT1=
EXTT2=
EXTT3=
EXTT4=
EXTT5=
EXTT6=
EXTT7=
EXTT8=with Johnny Cash
EXTT9=
PLAYORDER=
